<svg id="Capa_1" enable-background="new 0 0 512 512" height="512" viewBox="0 0 512 512" width="512" xmlns="http://www.w3.org/2000/svg"><g><path d="m449.521 256.714c-8.777-31.673-36.842-55-71.271-55h-199.065c-16.995-15.961-39.619-25-63.074-25h-27.861v-71.429c0-24.813-20.187-45-45-45s-43.25 20.188-43.25 45.001v346.429h88.25v-70h334v70h89.75v-195h-62.479zm-71.271-25c19.557 0 35.239 12.539 41.43 30h-211.704c-.795-10.313-3.358-20.537-7.53-30zm-262.14-25c31.189 0 58.166 24.189 61.714 55h-89.574v-55zm-57.86 215h-29v-316.428c0-8.271 5.729-15 14-15s15 6.729 15 15zm30-70v-60h334v60zm394 70h-30v-135h30z"/></g></svg>