<svg id="Capa_1" enable-background="new 0 0 512 512" height="512" viewBox="0 0 512 512" width="512" xmlns="http://www.w3.org/2000/svg"><g><path d="m447.479 100v-49.41c0-27.896-22.694-50.59-50.59-50.59h-281.777c-27.896 0-50.59 22.695-50.59 50.59v49.41h-64.522v115h30v-85h34.521v305h48.979v47.123c0 16.195 13.224 29.877 28.877 29.877h32.245c15.923 0 28.877-12.955 28.877-28.877v-48.123h105v48.123c0 15.923 12.955 28.877 28.878 28.877h32.244c15.923 0 28.878-12.955 28.878-28.877v-48.123h48.979v-305h34.522v85h30v-115zm-352.958 160v-160h146.479v160zm176.479-160h146.479v160h-146.479zm-155.888-70h281.777c11.354 0 20.59 9.237 20.59 20.59v19.41h-322.958v-19.41c0-11.353 9.237-20.59 20.591-20.59zm58.388 452h-30v-47h30zm195 0h-30v-47h30zm-273.979-77v-115h322.957v115z"/><path d="m128.5 332.5h30v30h-30z"/><path d="m188.5 332.5h30v30h-30z"/><path d="m293.5 332.5h30v30h-30z"/><path d="m353.5 332.5h30v30h-30z"/></g></svg>