<svg id="Capa_1" enable-background="new 0 0 512.024 512.024" height="512" viewBox="0 0 512.024 512.024" width="512" xmlns="http://www.w3.org/2000/svg"><g><path d="m480.535 325.052c-19.156-17.151-46.646-26.597-75.59-26.597-23.899 0-56.842-11.379-83.926-28.989-28.236-18.359-45.094-40.428-45.095-58.935l.991-153.205h-118.186-83.456c-9.956-28.565-37.145-49.126-69.061-49.126h-5.448v30h5.447c23.781 0 43.127 19.347 43.127 43.127v131.026c-46.643 40.952-49.672 116.125-49.314 157.263.027 3.146 0 134.209 0 134.209h225.269l-.042-16.17c33.981 5.386 107.489 16.17 127.169 16.17h.206 159.397v-103.86c.001-30.411-10.717-56.316-31.488-74.913zm-356.806-237.725v117.362h-44.374l.135-117.362zm-54.343 147.362h84.343v-147.362h92.991l-.39 76.341h-46.438v30h46.244c-.118 18.205-2.361 21.942 3.793 39.387l-38.183 16.45 11.87 27.553 41.127-17.718c6.789 8.674 15.352 17.078 25.569 25.056l-19.586 44.139 27.422 12.168 17.485-39.403c29.605 16.918 62.878 27.157 89.311 27.157 37.999 0 77.34 22.111 77.34 71.51v13.378h-126.719c-14.843 0-49.617-1.597-60.104-3.872l-88.335-18.522-71.631-.071c-2.769-25.447-12.639-48.628-28.485-66.403-18.019-20.212-42.73-32.16-70.264-34.155 4.941-21.513 16.812-41.804 32.64-55.633zm-37.25 85.412c38.586 1.701 67.417 30.157 73.128 70.658h-74.5s-.321-52.296 1.372-70.658zm320.364 153.724c-26.482 0-53.725-5.832-79.826-9.709-24.874-3.695-52.7-7.673-77.517-11.727l.057 21.116h-34.265v-29.54h-30v29.54h-36v-29.54h-30v29.54h-34.185v-52.731l173.128.171 85.207 17.844c14.748 3.199 53.523 4.555 66.466 4.555h126.719v29.899z"/></g></svg>