<svg id="Capa_1" enable-background="new 0 0 512 512" height="512" viewBox="0 0 512 512" width="512" xmlns="http://www.w3.org/2000/svg"><g><path d="m320 186h57.684l73.312-55-73.312-55h-59.184v-12.5c0-34.462-28.038-63.5-62.5-63.5s-62.5 29.038-62.5 63.5v12.5h-122.5v110h121v55h-57.684l-73.312 55 73.312 55h58.73l.406 131h-49.952v30h225v-30h-50.047l-.406-131h122.953v-110h-121zm-96.5-122.5c0-17.92 14.58-32.5 32.5-32.5s32.5 14.58 32.5 32.5v12.5h-65zm-122.5 92.5v-50h266.682l33.323 25-33.323 25zm189 30v50h-68v-50zm-1.547 296h-65l-.406-131h65zm122.547-161h-266.682l-33.323-25 33.323-25h266.682z"/></g></svg>