<svg id="Capa_1" enable-background="new 0 0 512 512" height="512" viewBox="0 0 512 512" width="512" xmlns="http://www.w3.org/2000/svg"><g><path d="m512 447.609-205.944-203.755c9.314 4.051 19.441 6.198 29.904 6.198 20.033 0 38.868-7.802 53.033-21.968l123.007-123.743-20.476-21.213-74.411 74.41-21.401-21.401 74.785-73.911-21.088-21.338-74.911 74.035-21.026-21.026 74.411-74.411-21.212-19.486-123.744 122.019c-22.253 22.252-27.552 55.117-15.938 82.447l-203.913-204.466-17.922 18.454c-17.658 17.652-27.382 41.124-27.382 66.09s9.724 48.438 27.371 66.085l125.685 125.911-170.828 173.553 60.918 61.907 193.802-191.796.114-.114 196.254 191.91zm-207.86-304.378 28.12-28.12 63.639 63.64-28.12 28.12c-17.343 17.343-46.293 17.345-63.639 0-17.546-17.546-17.546-46.094 0-63.64zm-256.369-58.687c0-15.385 5.438-29.933 15.408-41.452l212.963 213.264-41.716 41.435-168.061-168.365c-11.99-11.99-18.594-27.93-18.594-44.882zm-8.06 365.549 152.309-152.318 21.193 21.229-152.295 152.296zm236.337-151.217 21.342-21.341 174.632 170.34-21.213 21.213z"/></g></svg>