<svg id="Capa_1" enable-background="new 0 0 512 512" height="512" viewBox="0 0 512 512" width="512" xmlns="http://www.w3.org/2000/svg"><g><path d="m512 121.111c-1.362-50.782-40.821-93.229-92.279-94.966-51.91-1.766-96.38 39.248-99.38 91.143l-145.261-43.527-175.08 52.03v360.12l175.08-52.04 158.59 47.52 178.33-52.11zm-152.648-32.15c12.272-21.26 34.854-33.658 59.355-32.834 48.059 1.624 78.169 54.708 57.361 97.482l-59.197 104.958-58.785-104.153c-10.949-20.653-10.48-45.107 1.266-65.453zm-39.009 211.656-128.651-51.213v-139.356l128.651 38.55zm-128.652-18.925 128.651 51.214v113.172l-128.651-38.55zm158.652-79.971 50.66 89.763-50.66 13.495zm-188.652-92.638v139.315l-131.251 38.855v-139.132zm-131.251 209.476 131.251-38.855v126.859l-131.251 39.038zm319.903 126.744v-109.277l65.968-17.418 67.789-115.034v202.857z"/><path d="m401.477 113.858h30v30h-30z"/></g></svg>