<svg id="Capa_1" enable-background="new 0 0 511.978 511.978" height="512" viewBox="0 0 511.978 511.978" width="512" xmlns="http://www.w3.org/2000/svg"><g><path d="m408.792 97.042c-29.384-59.544-87.593-96.31-152.803-97.042-65.21.732-123.419 37.498-152.803 97.042-13.839 28.044-19.838 58.857-17.35 89.109 2.676 32.511 15.258 63.655 36.387 90.066l62.143 77.679 18.308 64.077h-44.435v30h24.338l22 64.004h51.412 51.412l22-64.004h24.338v-30h-44.435l18.308-64.077 62.143-77.679c21.129-26.411 33.711-57.556 36.387-90.066 2.488-30.251-3.511-61.065-17.35-89.109zm-152.803-49.968c30.466 27.092 52.5 79.211 52.5 126.645 0 47.296-21.932 115.023-52.5 144.791-30.568-29.768-52.5-97.495-52.5-144.791 0-47.434 22.034-99.553 52.5-126.645zm38.971 311.9-16.857 59h-44.228l-16.857-59zm-92.114-30-57.197-71.496c-34.149-42.688-39.967-97.701-15.561-147.16 19.828-40.179 55.467-67.818 97.131-76.992-32.065 34.094-53.73 88.896-53.73 140.392 0 28.808 7.267 65.024 19.438 96.878 6.851 17.93 17.335 40.136 32.109 58.378zm83.037 153h-59.788l-11.846-34h83.479zm80.446-224.496-57.197 71.496h-22.19c14.774-18.242 25.258-40.448 32.109-58.378 12.172-31.854 19.438-68.07 19.438-96.878 0-51.497-21.665-106.298-53.73-140.392 41.663 9.173 77.303 36.813 97.131 76.992 24.406 49.459 18.588 104.472-15.561 147.16z"/></g></svg>